<mxfile host="app.diagrams.net" modified="2023-07-03T11:00:35.318Z" agent="Mozilla/5.0 (Macintosh; Intel Mac OS X 10_15_7) AppleWebKit/605.1.15 (KHTML, like Gecko) Version/16.5.1 Safari/605.1.15" etag="KBuQzKU4QngOtmjjB2rx" version="21.5.2" type="github">
  <diagram id="C5RBs43oDa-KdzZeNtuy" name="Page-1">
    <mxGraphModel dx="1205" dy="786" grid="1" gridSize="10" guides="1" tooltips="1" connect="1" arrows="1" fold="1" page="1" pageScale="1" pageWidth="827" pageHeight="1169" math="0" shadow="0">
      <root>
        <mxCell id="WIyWlLk6GJQsqaUBKTNV-0" />
        <mxCell id="WIyWlLk6GJQsqaUBKTNV-1" parent="WIyWlLk6GJQsqaUBKTNV-0" />
        <mxCell id="cjS9mdwZnMnHXcv700s7-60" style="edgeStyle=orthogonalEdgeStyle;rounded=0;orthogonalLoop=1;jettySize=auto;html=1;exitX=0.5;exitY=1;exitDx=0;exitDy=0;entryX=0.5;entryY=0;entryDx=0;entryDy=0;" edge="1" parent="WIyWlLk6GJQsqaUBKTNV-1" source="cjS9mdwZnMnHXcv700s7-0" target="cjS9mdwZnMnHXcv700s7-56">
          <mxGeometry relative="1" as="geometry" />
        </mxCell>
        <mxCell id="cjS9mdwZnMnHXcv700s7-0" value="Initial state" style="ellipse;whiteSpace=wrap;html=1;aspect=fixed;" vertex="1" parent="WIyWlLk6GJQsqaUBKTNV-1">
          <mxGeometry x="360" y="180" width="80" height="80" as="geometry" />
        </mxCell>
        <mxCell id="cjS9mdwZnMnHXcv700s7-36" style="edgeStyle=orthogonalEdgeStyle;rounded=0;orthogonalLoop=1;jettySize=auto;html=1;entryX=0;entryY=0.5;entryDx=0;entryDy=0;" edge="1" parent="WIyWlLk6GJQsqaUBKTNV-1" source="cjS9mdwZnMnHXcv700s7-1" target="cjS9mdwZnMnHXcv700s7-34">
          <mxGeometry relative="1" as="geometry" />
        </mxCell>
        <mxCell id="cjS9mdwZnMnHXcv700s7-1" value="Start player turn" style="ellipse;whiteSpace=wrap;html=1;aspect=fixed;" vertex="1" parent="WIyWlLk6GJQsqaUBKTNV-1">
          <mxGeometry x="790" y="320" width="80" height="80" as="geometry" />
        </mxCell>
        <mxCell id="cjS9mdwZnMnHXcv700s7-24" style="edgeStyle=orthogonalEdgeStyle;rounded=0;orthogonalLoop=1;jettySize=auto;html=1;entryX=0.5;entryY=1;entryDx=0;entryDy=0;" edge="1" parent="WIyWlLk6GJQsqaUBKTNV-1" source="cjS9mdwZnMnHXcv700s7-11" target="cjS9mdwZnMnHXcv700s7-1">
          <mxGeometry relative="1" as="geometry" />
        </mxCell>
        <mxCell id="cjS9mdwZnMnHXcv700s7-11" value="Spawn threats" style="ellipse;whiteSpace=wrap;html=1;aspect=fixed;" vertex="1" parent="WIyWlLk6GJQsqaUBKTNV-1">
          <mxGeometry x="450" y="480" width="80" height="80" as="geometry" />
        </mxCell>
        <mxCell id="cjS9mdwZnMnHXcv700s7-21" value="Yes" style="edgeStyle=orthogonalEdgeStyle;rounded=0;orthogonalLoop=1;jettySize=auto;html=1;exitX=1;exitY=0.5;exitDx=0;exitDy=0;entryX=0;entryY=0.5;entryDx=0;entryDy=0;" edge="1" parent="WIyWlLk6GJQsqaUBKTNV-1" source="cjS9mdwZnMnHXcv700s7-20" target="cjS9mdwZnMnHXcv700s7-1">
          <mxGeometry relative="1" as="geometry" />
        </mxCell>
        <mxCell id="cjS9mdwZnMnHXcv700s7-51" value="No" style="edgeStyle=orthogonalEdgeStyle;rounded=0;orthogonalLoop=1;jettySize=auto;html=1;exitX=0.5;exitY=1;exitDx=0;exitDy=0;entryX=0.5;entryY=0;entryDx=0;entryDy=0;" edge="1" parent="WIyWlLk6GJQsqaUBKTNV-1" source="cjS9mdwZnMnHXcv700s7-20" target="cjS9mdwZnMnHXcv700s7-50">
          <mxGeometry relative="1" as="geometry" />
        </mxCell>
        <mxCell id="cjS9mdwZnMnHXcv700s7-20" value="Are there players that not placed dwellers or passed?" style="rhombus;whiteSpace=wrap;html=1;" vertex="1" parent="WIyWlLk6GJQsqaUBKTNV-1">
          <mxGeometry x="520" y="260" width="200" height="200" as="geometry" />
        </mxCell>
        <mxCell id="cjS9mdwZnMnHXcv700s7-40" style="edgeStyle=orthogonalEdgeStyle;rounded=0;orthogonalLoop=1;jettySize=auto;html=1;exitX=1;exitY=0;exitDx=0;exitDy=0;exitPerimeter=0;entryX=0;entryY=0.5;entryDx=0;entryDy=0;" edge="1" parent="WIyWlLk6GJQsqaUBKTNV-1" source="cjS9mdwZnMnHXcv700s7-31" target="cjS9mdwZnMnHXcv700s7-38">
          <mxGeometry relative="1" as="geometry" />
        </mxCell>
        <mxCell id="cjS9mdwZnMnHXcv700s7-43" style="edgeStyle=orthogonalEdgeStyle;rounded=0;orthogonalLoop=1;jettySize=auto;html=1;exitX=1;exitY=1;exitDx=0;exitDy=0;exitPerimeter=0;entryX=0;entryY=0.5;entryDx=0;entryDy=0;" edge="1" parent="WIyWlLk6GJQsqaUBKTNV-1" source="cjS9mdwZnMnHXcv700s7-31" target="cjS9mdwZnMnHXcv700s7-39">
          <mxGeometry relative="1" as="geometry" />
        </mxCell>
        <mxCell id="cjS9mdwZnMnHXcv700s7-31" value="" style="strokeWidth=2;html=1;shape=mxgraph.flowchart.annotation_2;align=left;labelPosition=right;pointerEvents=1;" vertex="1" parent="WIyWlLk6GJQsqaUBKTNV-1">
          <mxGeometry x="1170" y="310" width="50" height="100" as="geometry" />
        </mxCell>
        <mxCell id="cjS9mdwZnMnHXcv700s7-37" value="Yes" style="edgeStyle=orthogonalEdgeStyle;rounded=0;orthogonalLoop=1;jettySize=auto;html=1;exitX=1;exitY=0.5;exitDx=0;exitDy=0;entryX=0;entryY=0.5;entryDx=0;entryDy=0;entryPerimeter=0;" edge="1" parent="WIyWlLk6GJQsqaUBKTNV-1" source="cjS9mdwZnMnHXcv700s7-34" target="cjS9mdwZnMnHXcv700s7-31">
          <mxGeometry relative="1" as="geometry" />
        </mxCell>
        <mxCell id="cjS9mdwZnMnHXcv700s7-46" value="No" style="edgeStyle=orthogonalEdgeStyle;rounded=0;orthogonalLoop=1;jettySize=auto;html=1;exitX=0.5;exitY=0;exitDx=0;exitDy=0;entryX=1;entryY=0.5;entryDx=0;entryDy=0;" edge="1" parent="WIyWlLk6GJQsqaUBKTNV-1" source="cjS9mdwZnMnHXcv700s7-34" target="cjS9mdwZnMnHXcv700s7-48">
          <mxGeometry x="-0.4784" relative="1" as="geometry">
            <Array as="points">
              <mxPoint x="1050" y="160" />
            </Array>
            <mxPoint as="offset" />
          </mxGeometry>
        </mxCell>
        <mxCell id="cjS9mdwZnMnHXcv700s7-34" value="Are available dwellers exists?" style="rhombus;whiteSpace=wrap;html=1;" vertex="1" parent="WIyWlLk6GJQsqaUBKTNV-1">
          <mxGeometry x="950" y="260" width="200" height="198.5" as="geometry" />
        </mxCell>
        <mxCell id="cjS9mdwZnMnHXcv700s7-47" style="edgeStyle=orthogonalEdgeStyle;rounded=0;orthogonalLoop=1;jettySize=auto;html=1;exitX=0.5;exitY=0;exitDx=0;exitDy=0;" edge="1" parent="WIyWlLk6GJQsqaUBKTNV-1" source="cjS9mdwZnMnHXcv700s7-38">
          <mxGeometry relative="1" as="geometry">
            <mxPoint x="1050" y="159.9999999999999" as="targetPoint" />
            <Array as="points">
              <mxPoint x="1310" y="160" />
            </Array>
          </mxGeometry>
        </mxCell>
        <mxCell id="cjS9mdwZnMnHXcv700s7-38" value="Pass" style="rounded=0;whiteSpace=wrap;html=1;" vertex="1" parent="WIyWlLk6GJQsqaUBKTNV-1">
          <mxGeometry x="1250" y="280" width="120" height="60" as="geometry" />
        </mxCell>
        <mxCell id="cjS9mdwZnMnHXcv700s7-45" style="edgeStyle=orthogonalEdgeStyle;rounded=0;orthogonalLoop=1;jettySize=auto;html=1;exitX=0.5;exitY=1;exitDx=0;exitDy=0;entryX=0.5;entryY=1;entryDx=0;entryDy=0;" edge="1" parent="WIyWlLk6GJQsqaUBKTNV-1" source="cjS9mdwZnMnHXcv700s7-39" target="cjS9mdwZnMnHXcv700s7-34">
          <mxGeometry relative="1" as="geometry">
            <Array as="points">
              <mxPoint x="1310" y="520" />
              <mxPoint x="1050" y="520" />
            </Array>
          </mxGeometry>
        </mxCell>
        <mxCell id="cjS9mdwZnMnHXcv700s7-39" value="Place dweller" style="rounded=0;whiteSpace=wrap;html=1;" vertex="1" parent="WIyWlLk6GJQsqaUBKTNV-1">
          <mxGeometry x="1250" y="380" width="120" height="60" as="geometry" />
        </mxCell>
        <mxCell id="cjS9mdwZnMnHXcv700s7-49" style="edgeStyle=orthogonalEdgeStyle;rounded=0;orthogonalLoop=1;jettySize=auto;html=1;exitX=0;exitY=0.5;exitDx=0;exitDy=0;entryX=0.5;entryY=0;entryDx=0;entryDy=0;" edge="1" parent="WIyWlLk6GJQsqaUBKTNV-1" source="cjS9mdwZnMnHXcv700s7-48" target="cjS9mdwZnMnHXcv700s7-20">
          <mxGeometry relative="1" as="geometry" />
        </mxCell>
        <mxCell id="cjS9mdwZnMnHXcv700s7-48" value="End player turn" style="ellipse;whiteSpace=wrap;html=1;aspect=fixed;" vertex="1" parent="WIyWlLk6GJQsqaUBKTNV-1">
          <mxGeometry x="880" y="120" width="80" height="80" as="geometry" />
        </mxCell>
        <mxCell id="cjS9mdwZnMnHXcv700s7-52" style="edgeStyle=orthogonalEdgeStyle;rounded=0;orthogonalLoop=1;jettySize=auto;html=1;exitX=0;exitY=0.5;exitDx=0;exitDy=0;entryX=1;entryY=0.5;entryDx=0;entryDy=0;" edge="1" parent="WIyWlLk6GJQsqaUBKTNV-1" source="cjS9mdwZnMnHXcv700s7-50" target="cjS9mdwZnMnHXcv700s7-53">
          <mxGeometry relative="1" as="geometry" />
        </mxCell>
        <mxCell id="cjS9mdwZnMnHXcv700s7-50" value="Recall dwellers" style="ellipse;whiteSpace=wrap;html=1;aspect=fixed;" vertex="1" parent="WIyWlLk6GJQsqaUBKTNV-1">
          <mxGeometry x="580" y="630" width="80" height="80" as="geometry" />
        </mxCell>
        <mxCell id="cjS9mdwZnMnHXcv700s7-54" style="edgeStyle=orthogonalEdgeStyle;rounded=0;orthogonalLoop=1;jettySize=auto;html=1;exitX=0.5;exitY=0;exitDx=0;exitDy=0;entryX=0.5;entryY=1;entryDx=0;entryDy=0;" edge="1" parent="WIyWlLk6GJQsqaUBKTNV-1" source="cjS9mdwZnMnHXcv700s7-53" target="cjS9mdwZnMnHXcv700s7-55">
          <mxGeometry relative="1" as="geometry" />
        </mxCell>
        <mxCell id="cjS9mdwZnMnHXcv700s7-53" value="Round end" style="ellipse;whiteSpace=wrap;html=1;aspect=fixed;" vertex="1" parent="WIyWlLk6GJQsqaUBKTNV-1">
          <mxGeometry x="360" y="630" width="80" height="80" as="geometry" />
        </mxCell>
        <mxCell id="cjS9mdwZnMnHXcv700s7-57" style="edgeStyle=orthogonalEdgeStyle;rounded=0;orthogonalLoop=1;jettySize=auto;html=1;exitX=0.5;exitY=0;exitDx=0;exitDy=0;entryX=0;entryY=0.5;entryDx=0;entryDy=0;" edge="1" parent="WIyWlLk6GJQsqaUBKTNV-1" source="cjS9mdwZnMnHXcv700s7-55" target="cjS9mdwZnMnHXcv700s7-56">
          <mxGeometry relative="1" as="geometry" />
        </mxCell>
        <mxCell id="cjS9mdwZnMnHXcv700s7-55" value="Round start" style="ellipse;whiteSpace=wrap;html=1;aspect=fixed;" vertex="1" parent="WIyWlLk6GJQsqaUBKTNV-1">
          <mxGeometry x="250" y="450" width="80" height="80" as="geometry" />
        </mxCell>
        <mxCell id="cjS9mdwZnMnHXcv700s7-58" value="No" style="edgeStyle=orthogonalEdgeStyle;rounded=0;orthogonalLoop=1;jettySize=auto;html=1;exitX=0.5;exitY=1;exitDx=0;exitDy=0;entryX=0;entryY=0.5;entryDx=0;entryDy=0;" edge="1" parent="WIyWlLk6GJQsqaUBKTNV-1" source="cjS9mdwZnMnHXcv700s7-56" target="cjS9mdwZnMnHXcv700s7-11">
          <mxGeometry relative="1" as="geometry" />
        </mxCell>
        <mxCell id="cjS9mdwZnMnHXcv700s7-59" value="Yes" style="edgeStyle=orthogonalEdgeStyle;rounded=0;orthogonalLoop=1;jettySize=auto;html=1;exitX=1;exitY=0.5;exitDx=0;exitDy=0;entryX=0;entryY=0.5;entryDx=0;entryDy=0;" edge="1" parent="WIyWlLk6GJQsqaUBKTNV-1" source="cjS9mdwZnMnHXcv700s7-56" target="cjS9mdwZnMnHXcv700s7-20">
          <mxGeometry relative="1" as="geometry" />
        </mxCell>
        <mxCell id="cjS9mdwZnMnHXcv700s7-56" value="Is first round?" style="rhombus;whiteSpace=wrap;html=1;" vertex="1" parent="WIyWlLk6GJQsqaUBKTNV-1">
          <mxGeometry x="350" y="310" width="100" height="100" as="geometry" />
        </mxCell>
      </root>
    </mxGraphModel>
  </diagram>
</mxfile>
